<mxfile host="app.diagrams.net" modified="2023-12-25T13:51:29.479Z" agent="Mozilla/5.0 (Windows NT 10.0; Win64; x64) AppleWebKit/537.36 (KHTML, like Gecko) Chrome/121.0.0.0 Safari/537.36 Edg/121.0.0.0" etag="XYHFnIXetyricWOaUIY5" version="22.1.11" type="github">
  <diagram name="第1頁" id="g196Z8ZgZ3TDZdJJrRU8">
    <mxGraphModel dx="344" dy="574" grid="1" gridSize="10" guides="1" tooltips="1" connect="1" arrows="1" fold="1" page="1" pageScale="1" pageWidth="827" pageHeight="1169" math="0" shadow="0">
      <root>
        <mxCell id="0" />
        <mxCell id="1" parent="0" />
        <mxCell id="2_2iV95eJiY7F5BEkWWC-16" value="" style="rounded=0;whiteSpace=wrap;html=1;fillColor=#99FF99;" vertex="1" parent="1">
          <mxGeometry x="462.25" y="490" width="10.5" height="50" as="geometry" />
        </mxCell>
        <mxCell id="2_2iV95eJiY7F5BEkWWC-1" value="管理員" style="shape=umlActor;verticalLabelPosition=bottom;verticalAlign=top;html=1;outlineConnect=0;fillColor=#CCFF99;" vertex="1" parent="1">
          <mxGeometry x="80" y="110" width="30" height="60" as="geometry" />
        </mxCell>
        <mxCell id="2_2iV95eJiY7F5BEkWWC-2" value="" style="rounded=0;whiteSpace=wrap;html=1;fillColor=#99FF99;" vertex="1" parent="1">
          <mxGeometry x="90" y="200" width="10" height="330" as="geometry" />
        </mxCell>
        <mxCell id="2_2iV95eJiY7F5BEkWWC-3" value="" style="rounded=0;whiteSpace=wrap;html=1;fillColor=#99FF99;" vertex="1" parent="1">
          <mxGeometry x="230" y="320" width="10" height="220" as="geometry" />
        </mxCell>
        <mxCell id="2_2iV95eJiY7F5BEkWWC-4" value="" style="endArrow=classic;html=1;rounded=0;exitX=1.267;exitY=0.357;exitDx=0;exitDy=0;exitPerimeter=0;" edge="1" parent="1" source="2_2iV95eJiY7F5BEkWWC-2">
          <mxGeometry width="50" height="50" relative="1" as="geometry">
            <mxPoint x="190" y="370" as="sourcePoint" />
            <mxPoint x="230" y="320" as="targetPoint" />
          </mxGeometry>
        </mxCell>
        <mxCell id="2_2iV95eJiY7F5BEkWWC-5" value=":securityGuard" style="rounded=0;whiteSpace=wrap;html=1;fillColor=#99FF99;" vertex="1" parent="1">
          <mxGeometry x="187.5" y="120" width="95" height="40" as="geometry" />
        </mxCell>
        <mxCell id="2_2iV95eJiY7F5BEkWWC-6" value="" style="endArrow=none;dashed=1;html=1;rounded=0;entryX=0.5;entryY=1;entryDx=0;entryDy=0;" edge="1" parent="1" target="2_2iV95eJiY7F5BEkWWC-5">
          <mxGeometry width="50" height="50" relative="1" as="geometry">
            <mxPoint x="234.63" y="570" as="sourcePoint" />
            <mxPoint x="234.63" y="430" as="targetPoint" />
          </mxGeometry>
        </mxCell>
        <mxCell id="2_2iV95eJiY7F5BEkWWC-7" value="" style="rounded=0;whiteSpace=wrap;html=1;fillColor=#99FF99;" vertex="1" parent="1">
          <mxGeometry x="240" y="350" width="20" height="50" as="geometry" />
        </mxCell>
        <mxCell id="2_2iV95eJiY7F5BEkWWC-8" value="" style="endArrow=classic;html=1;rounded=0;exitX=1.119;exitY=0.081;exitDx=0;exitDy=0;exitPerimeter=0;entryX=1.096;entryY=0.394;entryDx=0;entryDy=0;entryPerimeter=0;" edge="1" parent="1" source="2_2iV95eJiY7F5BEkWWC-3" target="2_2iV95eJiY7F5BEkWWC-7">
          <mxGeometry width="50" height="50" relative="1" as="geometry">
            <mxPoint x="260" y="330" as="sourcePoint" />
            <mxPoint x="290" y="380" as="targetPoint" />
            <Array as="points">
              <mxPoint x="290" y="338" />
              <mxPoint x="290" y="370" />
            </Array>
          </mxGeometry>
        </mxCell>
        <mxCell id="2_2iV95eJiY7F5BEkWWC-9" value=":securityProfile" style="rounded=0;whiteSpace=wrap;html=1;fillColor=#99FF99;" vertex="1" parent="1">
          <mxGeometry x="420" y="120" width="95" height="40" as="geometry" />
        </mxCell>
        <mxCell id="2_2iV95eJiY7F5BEkWWC-10" value="finesecurityProfile()" style="text;strokeColor=none;align=center;fillColor=none;html=1;verticalAlign=middle;whiteSpace=wrap;rounded=0;" vertex="1" parent="1">
          <mxGeometry x="290" y="340" width="110" height="30" as="geometry" />
        </mxCell>
        <mxCell id="2_2iV95eJiY7F5BEkWWC-15" value="" style="endArrow=none;dashed=1;html=1;rounded=0;entryX=0.5;entryY=1;entryDx=0;entryDy=0;movable=0;resizable=0;rotatable=0;deletable=0;editable=0;locked=1;connectable=0;" edge="1" parent="1">
          <mxGeometry width="50" height="50" relative="1" as="geometry">
            <mxPoint x="467.13" y="570" as="sourcePoint" />
            <mxPoint x="467.5" y="160" as="targetPoint" />
          </mxGeometry>
        </mxCell>
        <mxCell id="2_2iV95eJiY7F5BEkWWC-19" value="" style="endArrow=classic;html=1;rounded=0;" edge="1" parent="1">
          <mxGeometry width="50" height="50" relative="1" as="geometry">
            <mxPoint x="240" y="510" as="sourcePoint" />
            <mxPoint x="460" y="510" as="targetPoint" />
          </mxGeometry>
        </mxCell>
        <mxCell id="2_2iV95eJiY7F5BEkWWC-20" value="VaildatePassword()" style="text;strokeColor=none;align=center;fillColor=none;html=1;verticalAlign=middle;whiteSpace=wrap;rounded=0;" vertex="1" parent="1">
          <mxGeometry x="300" y="480" width="110" height="30" as="geometry" />
        </mxCell>
        <mxCell id="2_2iV95eJiY7F5BEkWWC-22" value="" style="endArrow=block;dashed=1;endFill=0;endSize=12;html=1;rounded=0;entryX=1;entryY=0.5;entryDx=0;entryDy=0;" edge="1" parent="1" target="2_2iV95eJiY7F5BEkWWC-3">
          <mxGeometry width="160" relative="1" as="geometry">
            <mxPoint x="260" y="390" as="sourcePoint" />
            <mxPoint x="290" y="460" as="targetPoint" />
            <Array as="points">
              <mxPoint x="290" y="390" />
              <mxPoint x="290" y="430" />
            </Array>
          </mxGeometry>
        </mxCell>
        <mxCell id="2_2iV95eJiY7F5BEkWWC-24" value="" style="endArrow=block;dashed=1;endFill=0;endSize=12;html=1;rounded=0;entryX=1.193;entryY=0.943;entryDx=0;entryDy=0;entryPerimeter=0;" edge="1" parent="1" target="2_2iV95eJiY7F5BEkWWC-3">
          <mxGeometry width="160" relative="1" as="geometry">
            <mxPoint x="460" y="527" as="sourcePoint" />
            <mxPoint x="410" y="390" as="targetPoint" />
          </mxGeometry>
        </mxCell>
        <mxCell id="2_2iV95eJiY7F5BEkWWC-25" value="logOn()" style="text;strokeColor=none;align=center;fillColor=none;html=1;verticalAlign=middle;whiteSpace=wrap;rounded=0;" vertex="1" parent="1">
          <mxGeometry x="110" y="290" width="110" height="30" as="geometry" />
        </mxCell>
      </root>
    </mxGraphModel>
  </diagram>
</mxfile>
